<?xml version="1.0" encoding="utf-8"?>
<!-- Generator: Adobe Illustrator 19.0.0, SVG Export Plug-In . SVG Version: 6.00 Build 0)  -->
<svg version="1.1" id="Capa_1" xmlns="http://www.w3.org/2000/svg" xmlns:xlink="http://www.w3.org/1999/xlink" x="0px" y="0px"
	 viewBox="0 0 371 339" style="enable-background:new 0 0 371 339;" xml:space="preserve">
<style type="text/css">
	.st0{fill:url(#XMLID_44_);}
	.st1{fill:#FFFFFF;stroke:#000000;stroke-miterlimit:10;}
	.st2{fill:url(#XMLID_45_);}
	.st3{opacity:0.32;stroke:#000000;stroke-miterlimit:10;}
	.st4{fill:url(#XMLID_46_);}
	.st5{fill:url(#XMLID_47_);}
	.st6{fill:url(#XMLID_48_);}
	.st7{fill:url(#XMLID_49_);}
</style>
<linearGradient id="XMLID_44_" gradientUnits="userSpaceOnUse" x1="180.8539" y1="89.2851" x2="28.0159" y2="211.9153">
	<stop  offset="0.3262" style="stop-color:#0071BC"/>
	<stop  offset="0.7251" style="stop-color:#29ABE2"/>
</linearGradient>
<polygon id="XMLID_18_" class="st0" points="178,54 178,125.6 137.6,159.4 123.6,171.1 87.8,201 87.8,201 49.7,232.1 49.6,232 
	49.3,231.8 11,192.4 11,191.6 49,160.5 123.6,99 137.5,87.5 137.5,87.5 "/>
<path id="XMLID_5_" class="st1" d="M83.2,308.4"/>
<path id="XMLID_4_" class="st1" d="M137.6,308.4"/>
<linearGradient id="XMLID_45_" gradientUnits="userSpaceOnUse" x1="150.5013" y1="19.2148" x2="151.5063" y2="311.0021">
	<stop  offset="7.682518e-002" style="stop-color:#29ABE2"/>
	<stop  offset="0.8652" style="stop-color:#0071BC"/>
</linearGradient>
<rect id="XMLID_17_" x="124" y="19" class="st2" width="54" height="290"/>
<path id="XMLID_10_" class="st3" d="M83.2,308.4"/>
<path id="XMLID_9_" class="st3" d="M137.6,308.4"/>
<path id="XMLID_8_" class="st1" d="M296.6,307.4"/>
<path id="XMLID_7_" class="st1" d="M242.1,307.4"/>
<linearGradient id="XMLID_46_" gradientUnits="userSpaceOnUse" x1="29.3472" y1="175.9602" x2="159.2785" y2="310.0641">
	<stop  offset="0.2383" style="stop-color:#0071BC"/>
	<stop  offset="0.7383" style="stop-color:#29ABE2"/>
</linearGradient>
<polygon id="XMLID_16_" class="st4" points="178,294.3 178,309 123.7,309 49.6,232 49.3,231.9 11,192.4 11,191.6 49,160.6 49.4,161 
	87,200.2 87,201 87.8,201 124,238.3 137.6,252.4 "/>
<linearGradient id="XMLID_47_" gradientUnits="userSpaceOnUse" x1="17.8539" y1="89.2851" x2="-134.9841" y2="211.9153" gradientTransform="matrix(-1 0 0 1 209 0)">
	<stop  offset="0.3262" style="stop-color:#0071BC"/>
	<stop  offset="0.7251" style="stop-color:#29ABE2"/>
</linearGradient>
<polygon id="XMLID_13_" class="st5" points="194,54 194,125.6 234.4,159.4 248.4,171.1 284.2,201 284.3,201 322.3,232.1 322.4,232 
	322.7,231.8 361,192.4 361,191.6 323,160.5 248.4,99 234.5,87.5 234.5,87.5 "/>
<path id="XMLID_12_" class="st1" d="M288.8,308.4"/>
<path id="XMLID_11_" class="st1" d="M234.4,308.4"/>
<linearGradient id="XMLID_48_" gradientUnits="userSpaceOnUse" x1="-12.4987" y1="19.2148" x2="-11.4937" y2="311.0021" gradientTransform="matrix(-1 0 0 1 209 0)">
	<stop  offset="7.682518e-002" style="stop-color:#29ABE2"/>
	<stop  offset="0.8652" style="stop-color:#0071BC"/>
</linearGradient>
<rect id="XMLID_6_" x="194" y="19" class="st6" width="54" height="290"/>
<path id="XMLID_3_" class="st3" d="M288.8,308.4"/>
<path id="XMLID_2_" class="st3" d="M234.4,308.4"/>
<linearGradient id="XMLID_49_" gradientUnits="userSpaceOnUse" x1="-133.6528" y1="175.9602" x2="-3.7215" y2="310.0641" gradientTransform="matrix(-1 0 0 1 209 0)">
	<stop  offset="0.2383" style="stop-color:#0071BC"/>
	<stop  offset="0.7383" style="stop-color:#29ABE2"/>
</linearGradient>
<polygon id="XMLID_1_" class="st7" points="194,294.3 194,309 248.3,309 322.4,232 322.7,231.9 361,192.4 361,191.6 323,160.6 
	322.6,161 285,200.2 285,201 284.2,201 248,238.3 234.4,252.4 "/>
</svg>
